<svg width="22" height="14" viewBox="0 0 22 14" fill="none" xmlns="http://www.w3.org/2000/svg">
<path fill-rule="evenodd" clip-rule="evenodd" d="M21.4999 7.00021C21.4999 6.8013 21.4209 6.61054 21.2802 6.46989C21.1396 6.32923 20.9488 6.25021 20.7499 6.25021H3.06038L7.78088 1.53122C7.85061 1.46148 7.90592 1.3787 7.94366 1.28759C7.9814 1.19648 8.00082 1.09883 8.00082 1.00021C8.00082 0.901599 7.9814 0.803949 7.94366 0.71284C7.90592 0.621731 7.85061 0.538947 7.78088 0.469215C7.71114 0.399483 7.62836 0.344169 7.53725 0.30643C7.44614 0.268691 7.34849 0.249268 7.24988 0.249268C7.15126 0.249268 7.05361 0.268691 6.9625 0.30643C6.87139 0.344169 6.78861 0.399483 6.71888 0.469215L0.718876 6.46921C0.649031 6.53888 0.593617 6.62165 0.555807 6.71276C0.517997 6.80388 0.498535 6.90156 0.498535 7.00021C0.498535 7.09887 0.517997 7.19655 0.555807 7.28766C0.593617 7.37878 0.649031 7.46155 0.718876 7.53121L6.71888 13.5312C6.78861 13.6009 6.87139 13.6563 6.9625 13.694C7.05361 13.7317 7.15126 13.7512 7.24988 13.7512C7.34849 13.7512 7.44614 13.7317 7.53725 13.694C7.62836 13.6563 7.71114 13.6009 7.78088 13.5312C7.85061 13.4615 7.90592 13.3787 7.94366 13.2876C7.9814 13.1965 8.00082 13.0988 8.00082 13.0002C8.00082 12.9016 7.9814 12.8039 7.94366 12.7128C7.90592 12.6217 7.85061 12.5389 7.78088 12.4692L3.06038 7.75021H20.7499C20.9488 7.75021 21.1396 7.6712 21.2802 7.53055C21.4209 7.38989 21.4999 7.19913 21.4999 7.00021Z" fill="black"/>
</svg>
